<?xml version="1.0" encoding="iso-8859-1"?>
<!-- Generator: Adobe Illustrator 19.0.0, SVG Export Plug-In . SVG Version: 6.00 Build 0)  -->
<svg version="1.1" id="Layer_1" xmlns="http://www.w3.org/2000/svg" xmlns:xlink="http://www.w3.org/1999/xlink" x="0px" y="0px"
	 viewBox="0 0 512 512" style="enable-background:new 0 0 512 512;" xml:space="preserve">
<path style="fill:#FF709D;" d="M422.415,24.385C406.115,8.085,397.901,16.3,381.601,0c0,0-36.256,61.548-30.925,119.533
	l13.933,13.931l66.07-98.35C428.907,31.861,426.395,28.365,422.415,24.385z"/>
<path style="fill:#E60048;" d="M487.615,89.585c-3.981-3.981-7.477-6.494-10.729-8.264l-98.346,66.074l13.933,13.931
	C450.457,166.653,512,130.399,512,130.399C495.7,114.099,503.915,105.885,487.615,89.585z"/>
<path style="fill:#FF3776;" d="M446.8,65.2c-12.32-12.32-10.642-20.022-16.122-30.086l-66.07,98.35l13.933,13.931l98.346-66.074
	C466.822,75.841,459.12,77.519,446.8,65.2z"/>
<path style="fill:#E60048;" d="M89.585,487.615c16.3,16.3,24.514,8.085,40.814,24.385c0,0,36.366-61.743,30.897-119.824
	l-13.797-13.799l-66.177,98.51C83.093,480.139,85.605,483.635,89.585,487.615z"/>
<path style="fill:#FF3776;" d="M35.114,430.679c10.063,5.48,17.767,3.802,30.086,16.122c12.32,12.319,10.642,20.023,16.122,30.086
	l66.177-98.51l-13.878-13.88L35.114,430.679z"/>
<g>
	<path style="fill:#FF709D;" d="M119.831,350.704C61.747,345.232,0,381.601,0,381.601c16.3,16.3,8.085,24.514,24.385,40.814
		c3.981,3.981,7.477,6.494,10.729,8.264l98.507-66.182L119.831,350.704z"/>
	<path style="fill:#FF709D;" d="M422.07,255.929c0-91.667-74.311-165.978-165.978-165.978c-23.226,0-45.334,4.778-65.405,13.393
		c-52.278,102.168-5.145,246.8,130.584,305.269C380.536,383.281,422.07,324.458,422.07,255.929z"/>
</g>
<path style="fill:#FF3776;" d="M90.114,255.929c0,91.667,74.311,165.978,165.978,165.978c23.138,0,45.167-4.74,65.178-13.293
	c-108.738-109.002-21.768-196.259-130.583-305.27C131.542,128.729,90.114,187.488,90.114,255.929z"/>
<g>
</g>
<g>
</g>
<g>
</g>
<g>
</g>
<g>
</g>
<g>
</g>
<g>
</g>
<g>
</g>
<g>
</g>
<g>
</g>
<g>
</g>
<g>
</g>
<g>
</g>
<g>
</g>
<g>
</g>
</svg>
